HIERARCHY
ROOT Hips
{
	OFFSET 53.781399 -8.660535 91.634499
	CHANNELS 6 Xposition Yposition Zposition Xrotation Yrotation Zrotation
	JOINT spine
	{
		OFFSET 0.000000 -0.393701 6.846367
		CHANNELS 3 Xrotation Yrotation Zrotation
		JOINT spine1
		{
			OFFSET 0.000000 -0.000001 9.496208
			CHANNELS 3 Xrotation Yrotation Zrotation
			JOINT spine2
			{
				OFFSET 0.000000 -0.000002 9.099091
				CHANNELS 3 Xrotation Yrotation Zrotation
				JOINT Neck
				{
					OFFSET 0.000000 -1.113784 23.361198
					CHANNELS 3 Xrotation Yrotation Zrotation
					JOINT Head
					{
						OFFSET 0.000000 -0.000001 7.058014
						CHANNELS 3 Xrotation Yrotation Zrotation
						End Site
						{
							OFFSET 0.000000 5.634187 17.084396
						}
					}
				}
				JOINT RightShoulder
				{
					OFFSET -3.831360 0.533489 9.826309
					CHANNELS 3 Xrotation Yrotation Zrotation
					JOINT RightArm
					{
						OFFSET 0.000000 -0.000002 12.888100
						CHANNELS 3 Xrotation Yrotation Zrotation
						JOINT RightArmRoll
						{
							OFFSET 0.000000 -0.000001 6.506165
							CHANNELS 3 Xrotation Yrotation Zrotation
							JOINT RightForeArm
							{
								OFFSET 0.000000 -0.000003 18.950104
								CHANNELS 3 Xrotation Yrotation Zrotation
								JOINT RightForeArmRoll
								{
									OFFSET 0.000000 -0.000001 7.300919
									CHANNELS 3 Xrotation Yrotation Zrotation
									JOINT RightHand
									{
										OFFSET 0.000000 -0.000003 14.651398
										CHANNELS 3 Xrotation Yrotation Zrotation
										End Site
										{
											OFFSET 0.000000 0.000000 0.100006
										}
									}
								}
							}
						}
					}
				}
				JOINT LeftShoulder
				{
					OFFSET 3.831360 0.533489 9.826309
					CHANNELS 3 Xrotation Yrotation Zrotation
					JOINT LeftArm
					{
						OFFSET 0.000000 -0.000002 12.888100
						CHANNELS 3 Xrotation Yrotation Zrotation
						JOINT LeftArmRoll
						{
							OFFSET 0.000000 -0.000001 6.506165
							CHANNELS 3 Xrotation Yrotation Zrotation
							JOINT LeftForeArm
							{
								OFFSET 0.000000 -0.000003 18.950104
								CHANNELS 3 Xrotation Yrotation Zrotation
								JOINT LeftForeArmRoll
								{
									OFFSET 0.000000 -0.000001 7.300919
									CHANNELS 3 Xrotation Yrotation Zrotation
									JOINT LeftHand
									{
										OFFSET 0.000000 -0.000003 14.651398
										CHANNELS 3 Xrotation Yrotation Zrotation
										End Site
										{
											OFFSET 0.000000 0.000000 0.100006
										}
									}
								}
							}
						}
					}
				}
			}
		}
	}
	JOINT RightUpLeg
	{
		OFFSET -6.068371 0.933477 -1.112778
		CHANNELS 3 Xrotation Yrotation Zrotation
		JOINT RightUpLegRoll
		{
			OFFSET 0.000000 -0.000003 17.179604
			CHANNELS 3 Xrotation Yrotation Zrotation
			JOINT RightLeg
			{
				OFFSET 0.000000 0.000003 -21.274300
				CHANNELS 3 Xrotation Yrotation Zrotation
				JOINT RightLegRoll
				{
					OFFSET 0.000000 -0.000003 21.343903
					CHANNELS 3 Xrotation Yrotation Zrotation
					JOINT RightFoot
					{
						OFFSET 0.000000 -0.000003 17.765198
						CHANNELS 3 Xrotation Yrotation Zrotation
						JOINT RightToeBase
						{
							OFFSET 0.000000 -0.000002 14.850807
							CHANNELS 3 Xrotation Yrotation Zrotation
							End Site
							{
								OFFSET 0.006294 0.829003 7.192139
							}
						}
					}
				}
			}
		}
	}
	JOINT LeftUpLeg
	{
		OFFSET 6.068371 0.933477 -1.112778
		CHANNELS 3 Xrotation Yrotation Zrotation
		JOINT LeftUpLegRoll
		{
			OFFSET 0.000000 -0.000003 17.179703
			CHANNELS 3 Xrotation Yrotation Zrotation
			JOINT LeftLeg
			{
				OFFSET 0.000000 -0.000003 21.274193
				CHANNELS 3 Xrotation Yrotation Zrotation
				JOINT LeftLegRoll
				{
					OFFSET 0.000000 -0.000003 21.541199
					CHANNELS 3 Xrotation Yrotation Zrotation
					JOINT LeftFoot
					{
						OFFSET 0.000000 -0.000003 17.567902
						CHANNELS 3 Xrotation Yrotation Zrotation
						JOINT LeftToeBase
						{
							OFFSET 0.000000 -0.000003 14.850800
							CHANNELS 3 Xrotation Yrotation Zrotation
							End Site
							{
								OFFSET -0.028210 0.829003 7.192139
							}
						}
					}
				}
			}
		}
	}
}
MOTION
Frames: 5
Frame Time: 0.041667
53.838303 -6.546507 91.694893 -4.643929 -0.124696 -0.402583 -1.778270 -0.015801 -0.097179 0.446128 -0.027417 -0.210193 2.091200 -0.029908 -0.210022 29.313410 3.230336 -1.277355 -8.420212 -1.837086 -1.042302 7.345198 -62.376204 8.035809 -58.517427 -131.011976 -89.319627 0.000002 0.000001 -0.000001 73.462407 -3.250704 -0.227042 0.000002 -0.000012 -2.999992 -5.000178 -7.998692 0.000130 4.524193 66.066466 -4.269629 -58.950632 137.608368 85.799593 0.000000 0.000001 -0.000000 67.716080 10.491151 -4.535270 -0.000003 -0.000007 3.004500 -5.000250 7.998701 -0.000173 0.922552 -175.539591 1.227193 -179.999991 0.000005 -1.143997 174.941458 -1.680430 -0.224729 0.000004 0.000004 0.035196 68.708869 6.926147 2.058128 25.456957 -7.355615 0.000001 4.431169 175.234227 -0.540111 -0.000005 -0.000005 -1.197410 -4.648584 1.521302 0.194444 -0.000003 0.000001 -0.038040 68.846142 -6.919882 -2.062756 25.456965 7.355615 -0.000001 
53.834908 -6.548327 91.693489 -4.642032 -0.130131 -0.409820 -1.778058 -0.014842 -0.097561 0.446180 -0.025814 -0.211095 2.091250 -0.028325 -0.210910 29.316005 3.255260 -1.269646 -8.404204 -1.847529 -1.032543 7.377694 -62.410751 8.067346 -58.569405 -130.860346 -89.357746 0.000002 -0.000002 -0.000006 73.385581 -3.279221 -0.196837 0.000004 -0.000008 -2.999989 -5.000180 -7.998690 0.000132 4.529608 66.094170 -4.271853 -58.986156 137.426876 85.795659 0.000001 0.000001 -0.000001 67.669252 10.518788 -4.558302 -0.000003 -0.000007 3.004501 -5.000250 7.998704 -0.000171 0.914710 -175.552568 1.197706 -179.999991 0.000005 -1.144994 174.928180 -1.641548 -0.224677 0.000004 0.000004 0.035195 68.703589 6.926097 2.057550 25.456959 -7.355616 0.000000 4.430386 175.242191 -0.534705 -0.000005 -0.000004 -1.197420 -4.649444 1.521171 0.194443 -0.000003 0.000001 -0.038012 68.845916 -6.919870 -2.062869 25.456967 7.355615 -0.000001 
53.840809 -6.549378 91.693291 -4.640311 -0.135533 -0.417039 -1.777822 -0.013880 -0.097934 0.446289 -0.024224 -0.211918 2.091360 -0.026757 -0.211716 29.318191 3.279848 -1.261797 -8.387822 -1.858025 -1.022661 7.411412 -62.445530 8.100244 -58.624087 -130.707582 -89.396234 0.000000 -0.000000 -0.000006 73.309083 -3.307828 -0.166674 0.000004 -0.000005 -2.999989 -5.000179 -7.998693 0.000129 4.534575 66.121381 -4.273646 -59.022882 137.245521 85.791144 0.000001 0.000000 -0.000000 67.619972 10.547434 -4.581880 -0.000002 -0.000006 3.004498 -5.000251 7.998705 -0.000167 0.907240 -175.565559 1.168402 -179.999991 0.000005 -1.144994 174.915120 -1.602667 -0.224588 0.000004 0.000004 0.035196 68.698323 6.926122 2.056884 25.456959 -7.355614 -0.000001 4.429838 175.249171 -0.529416 -0.000005 -0.000004 -1.197440 -4.650292 1.521010 0.194443 -0.000003 0.000001 -0.037985 68.845718 -6.919893 -2.062886 25.456965 7.355616 0.000001 
53.843605 -6.550009 91.690903 -4.638904 -0.140782 -0.424158 -1.777510 -0.012948 -0.098293 0.446524 -0.022712 -0.212643 2.091590 -0.025264 -0.212423 29.319779 3.303948 -1.253893 -8.371280 -1.868384 -1.012768 7.444917 -62.479818 8.132987 -58.678162 -130.554941 -89.431273 0.000000 0.000000 -0.000004 73.232728 -3.336644 -0.136479 0.000001 -0.000004 -2.999990 -5.000176 -7.998696 0.000132 4.538639 66.147623 -4.274554 -59.059403 137.065463 85.784321 0.000004 -0.000002 -0.000003 67.567865 10.577187 -4.606032 -0.000002 -0.000005 3.004502 -5.000250 7.998700 -0.000168 0.900409 -175.578550 1.139900 -179.999991 0.000005 -1.144994 174.902567 -1.564797 -0.224570 0.000003 0.000004 0.035195 68.693255 6.926123 2.056301 25.456957 -7.355615 0.000000 4.429637 175.257149 -0.524210 -0.000005 -0.000004 -1.197450 -4.651104 1.520827 0.194442 -0.000004 0.000002 -0.037957 68.845513 -6.919880 -2.062996 25.456962 7.355614 -0.000000 
53.836105 -6.549599 91.691788 -4.637906 -0.145761 -0.431100 -1.777123 -0.012081 -0.098632 0.446955 -0.021339 -0.213249 2.092020 -0.023908 -0.213012 29.320841 3.327401 -1.246033 -8.354810 -1.878386 -1.002972 7.476743 -62.512582 8.164034 -58.731485 -130.402354 -89.463375 -0.000000 -0.000000 -0.000006 73.155943 -3.365820 -0.106187 0.000003 -0.000008 -2.999989 -5.000180 -7.998693 0.000134 4.541304 66.172396 -4.274093 -59.096074 136.887045 85.775653 0.000001 -0.000001 -0.000000 67.512691 10.608077 -4.630736 -0.000004 -0.000005 3.004501 -5.000250 7.998706 -0.000168 0.894448 -175.589533 1.112820 -179.999991 0.000005 -1.144994 174.890737 -1.527908 -0.224591 0.000004 0.000004 0.035195 68.688405 6.926138 2.055709 25.456960 -7.355616 0.000001 4.429914 175.265127 -0.519285 -0.000005 -0.000004 -1.197460 -4.651853 1.520647 0.194442 -0.000003 0.000001 -0.037930 68.845288 -6.919869 -2.063108 25.456965 7.355615 -0.000001 
